<?xml version="1.0" encoding="UTF-8" standalone="no"?>
<!-- Created with Inkscape (http://www.inkscape.org/) -->

<svg
   width="210mm"
   height="297mm"
   viewBox="0 0 210 297"
   version="1.1"
   id="svg5"
   xmlns="http://www.w3.org/2000/svg"
   xmlns:svg="http://www.w3.org/2000/svg">
  <defs
     id="defs2" />
  <g
     id="layer1">
    <path
       d="m 32.728883,130.7207 q 1.247668,0 2.32738,0.71981 1.103705,0.71981 1.775526,1.94348 0.671821,1.22367 0.671821,2.73527 0,1.4876 -0.671821,2.71128 -0.671821,1.22367 -1.775526,1.96747 -1.079712,0.71981 -2.32738,0.71981 h -4.414822 l 0.239936,-0.43188 v 4.96667 q 0,0.62383 -0.383898,1.05572 -0.383898,0.40789 -1.007731,0.40789 -0.59984,0 -0.983738,-0.40789 -0.383897,-0.43189 -0.383897,-1.05572 v -13.8683 q 0,-0.62383 0.407891,-1.03173 0.431885,-0.43188 1.055718,-0.43188 z m 0,8.06185 q 0.455879,0 0.887763,-0.3839 0.431885,-0.3839 0.719809,-0.98374 0.287923,-0.62383 0.287923,-1.29565 0,-0.69581 -0.287923,-1.29565 -0.287924,-0.59984 -0.719809,-0.95975 -0.431884,-0.3839 -0.887763,-0.3839 h -4.462809 l 0.287923,-0.43188 v 6.11837 l -0.26393,-0.3839 z"
       id="path7506"
       style="font-size:23.9936px;line-height:1.25;font-family:'Quicksand Light';-inkscape-font-specification:'Quicksand Light, @wght=700';font-variation-settings:'wght' 700;stroke-width:0.59984" />
    <path
       d="m 52.235645,141.10993 q 0,1.96747 -0.887763,3.47907 -0.86377,1.4876 -2.351373,2.32738 -1.46361,0.83978 -3.287124,0.83978 -1.823513,0 -3.311116,-0.83978 -1.46361,-0.83978 -2.351373,-2.32738 -0.86377,-1.5116 -0.86377,-3.47907 0,-1.96748 0.86377,-3.45508 0.887763,-1.5116 2.351373,-2.35137 1.487603,-0.86377 3.311116,-0.86377 1.823514,0 3.287124,0.86377 1.487603,0.83977 2.351373,2.35137 0.887763,1.4876 0.887763,3.45508 z m -2.879232,0 q 0,-1.22367 -0.503866,-2.11144 -0.479872,-0.91176 -1.319648,-1.41562 -0.815782,-0.50387 -1.823514,-0.50387 -1.007731,0 -1.847507,0.50387 -0.815782,0.50386 -1.319648,1.41562 -0.479872,0.88777 -0.479872,2.11144 0,1.19968 0.479872,2.11144 0.503866,0.88776 1.319648,1.39162 0.839776,0.50387 1.847507,0.50387 1.007732,0 1.823514,-0.50387 0.839776,-0.50386 1.319648,-1.39162 0.503866,-0.91176 0.503866,-2.11144 z"
       id="path7503"
       style="font-size:23.9936px;line-height:1.25;font-family:'Quicksand Light';-inkscape-font-specification:'Quicksand Light, @wght=700';font-variation-settings:'wght' 700;stroke-width:0.59984" />
    <path
       d="m 56.194556,147.51622 q -0.623833,0 -1.031724,-0.40789 -0.407892,-0.43189 -0.407892,-1.05572 v -9.90936 q 0,-0.62383 0.407892,-1.03172 0.407891,-0.43189 1.031724,-0.43189 0.623834,0 1.031725,0.43189 0.407892,0.40789 0.407892,1.03172 v 2.2554 l -0.167956,-1.60757 q 0.26393,-0.57585 0.671821,-1.00773 0.431885,-0.45588 0.959744,-0.7438 0.527859,-0.31192 1.127699,-0.45588 0.59984,-0.14396 1.19968,-0.14396 0.719808,0 1.199681,0.40789 0.503865,0.40789 0.503865,0.95974 0,0.79179 -0.407891,1.1517 -0.407891,0.33591 -0.887763,0.33591 -0.455879,0 -0.839776,-0.16796 -0.359904,-0.16795 -0.839776,-0.16795 -0.431885,0 -0.887764,0.21594 -0.431884,0.19195 -0.815782,0.62383 -0.359904,0.43189 -0.59984,1.07971 -0.215942,0.62384 -0.215942,1.48761 v 5.68648 q 0,0.62383 -0.407892,1.05572 -0.407891,0.40789 -1.031725,0.40789 z"
       id="path7500"
       style="font-size:23.9936px;line-height:1.25;font-family:'Quicksand Light';-inkscape-font-specification:'Quicksand Light, @wght=700';font-variation-settings:'wght' 700;stroke-width:0.59984" />
    <path
       d="m 65.312078,134.91958 h 5.686483 q 0.575846,0 0.959744,0.3839 0.383898,0.38389 0.383898,0.95974 0,0.55185 -0.383898,0.93575 -0.383898,0.35991 -0.959744,0.35991 h -5.686483 q -0.575847,0 -0.959744,-0.3839 -0.383898,-0.3839 -0.383898,-0.95975 0,-0.55185 0.383898,-0.91175 0.383897,-0.3839 0.959744,-0.3839 z m 2.567315,-2.9992 q 0.623834,0 1.007731,0.43188 0.407891,0.4079 0.407891,1.03173 v 10.67715 q 0,0.33591 0.119968,0.55185 0.143962,0.21595 0.359904,0.31192 0.239936,0.096 0.503866,0.096 0.287923,0 0.527859,-0.096 0.239936,-0.11997 0.551853,-0.11997 0.33591,0 0.59984,0.31192 0.287923,0.31192 0.287923,0.86377 0,0.67182 -0.743801,1.10371 -0.719808,0.43188 -1.559584,0.43188 -0.503866,0 -1.1277,-0.072 -0.59984,-0.096 -1.151693,-0.40789 -0.527859,-0.33591 -0.887763,-1.00773 -0.359904,-0.67182 -0.359904,-1.84751 v -10.79712 q 0,-0.62383 0.407891,-1.03173 0.431885,-0.43188 1.055719,-0.43188 z"
       id="path7497"
       style="font-size:23.9936px;line-height:1.25;font-family:'Quicksand Light';-inkscape-font-specification:'Quicksand Light, @wght=700';font-variation-settings:'wght' 700;stroke-width:0.59984" />
    <path
       d="m 85.49066,134.43971 q 0.623834,0 1.031725,0.40789 0.407891,0.40789 0.407891,1.05572 v 10.14929 q 0,0.62383 -0.407891,1.05572 -0.407891,0.40789 -1.031725,0.40789 -0.623834,0 -1.031725,-0.40789 -0.407891,-0.43189 -0.407891,-1.05572 v -1.17569 l 0.527859,0.21595 q 0,0.31191 -0.33591,0.76779 -0.335911,0.43189 -0.911757,0.86377 -0.575846,0.43189 -1.367635,0.7438 -0.767796,0.28793 -1.679552,0.28793 -1.655559,0 -2.9992,-0.83978 -1.343642,-0.86377 -2.135431,-2.35137 -0.767795,-1.5116 -0.767795,-3.45508 0,-1.96748 0.767795,-3.45508 0.791789,-1.5116 2.111437,-2.35137 1.319648,-0.86377 2.927219,-0.86377 1.031725,0 1.895495,0.31191 0.863769,0.31192 1.487603,0.79179 0.647827,0.47988 0.983738,0.98374 0.359904,0.47987 0.359904,0.81578 l -0.86377,0.31192 v -1.75153 q 0,-0.62384 0.407891,-1.03173 0.407891,-0.43188 1.031725,-0.43188 z m -4.846707,10.67715 q 1.055718,0 1.847507,-0.52786 0.791789,-0.52786 1.223674,-1.43962 0.455878,-0.91175 0.455878,-2.03945 0,-1.15169 -0.455878,-2.06345 -0.431885,-0.91176 -1.223674,-1.43962 -0.791789,-0.52786 -1.847507,-0.52786 -1.031725,0 -1.823514,0.52786 -0.791789,0.52786 -1.247667,1.43962 -0.431885,0.91176 -0.431885,2.06345 0,1.1277 0.431885,2.03945 0.455878,0.91176 1.247667,1.43962 0.791789,0.52786 1.823514,0.52786 z"
       id="path7494"
       style="font-size:23.9936px;line-height:1.25;font-family:'Quicksand Light';-inkscape-font-specification:'Quicksand Light, @wght=700';font-variation-settings:'wght' 700;stroke-width:0.59984" />
    <path
       d="m 93.168578,146.05261 q 0,0.62383 -0.431884,1.05572 -0.407892,0.40789 -1.031725,0.40789 -0.59984,0 -1.007732,-0.40789 -0.407891,-0.43189 -0.407891,-1.05572 v -14.82804 q 0,-0.62384 0.407891,-1.03173 0.431885,-0.43188 1.055719,-0.43188 0.623834,0 1.007731,0.43188 0.407891,0.40789 0.407891,1.03173 z"
       id="path7491"
       style="font-size:23.9936px;line-height:1.25;font-family:'Quicksand Light';-inkscape-font-specification:'Quicksand Light, @wght=700';font-variation-settings:'wght' 700;stroke-width:0.59984" />
    <path
       d="m 115.05067,147.51622 q -0.67182,0 -1.07971,-0.55185 l -5.54252,-7.29406 2.18342,-2.2314 5.73447,7.58198 q 0.33591,0.45587 0.33591,0.98373 0,0.67182 -0.50387,1.10371 -0.50386,0.40789 -1.1277,0.40789 z m 0.28793,-16.91549 q 0.57584,0 0.93575,0.47987 0.38389,0.45588 0.38389,0.93575 0,0.50387 -0.43188,0.93575 l -10.05332,9.62144 -0.11997,-3.43109 8.10984,-7.98987 q 0.55185,-0.55185 1.17569,-0.55185 z m -10.36524,16.91549 q -0.67182,0 -1.07971,-0.40789 -0.40789,-0.43189 -0.40789,-1.05572 v -13.8683 q 0,-0.62383 0.43188,-1.03173 0.43189,-0.43188 1.10371,-0.43188 0.67182,0 1.05572,0.43188 0.40789,0.4079 0.40789,1.03173 v 13.8683 q 0,0.62383 -0.40789,1.05572 -0.40789,0.40789 -1.10371,0.40789 z"
       id="path7488"
       style="font-size:23.9936px;line-height:1.25;font-family:'Quicksand Light';-inkscape-font-specification:'Quicksand Light, @wght=700';font-variation-settings:'wght' 700;stroke-width:0.59984" />
    <path
       d="m 120.71314,130.69671 q 0.33591,0 0.69581,0.19194 0.3839,0.16796 0.57585,0.45588 l 5.83044,8.97361 -1.19968,-0.048 5.97441,-8.92562 q 0.45588,-0.64782 1.17569,-0.64782 0.57584,0 1.03172,0.40789 0.45588,0.40789 0.45588,1.05572 v 13.89229 q 0,0.62383 -0.40789,1.05572 -0.40789,0.40789 -1.07971,0.40789 -0.67183,0 -1.10371,-0.40789 -0.40789,-0.43189 -0.40789,-1.05572 v -11.30099 l 0.93575,0.21595 -4.8947,7.46201 q -0.21594,0.26393 -0.55185,0.45588 -0.31192,0.19194 -0.64783,0.16795 -0.31191,0.024 -0.64782,-0.16795 -0.31192,-0.19195 -0.52786,-0.45588 l -4.58278,-7.24607 0.62383,-1.27166 v 12.14076 q 0,0.62383 -0.38389,1.05572 -0.3839,0.40789 -1.00774,0.40789 -0.59984,0 -0.98373,-0.40789 -0.3839,-0.43189 -0.3839,-1.05572 v -13.89229 q 0,-0.59984 0.43188,-1.03173 0.45588,-0.43188 1.07972,-0.43188 z"
       id="path7485"
       style="font-size:23.9936px;line-height:1.25;font-family:'Quicksand Light';-inkscape-font-specification:'Quicksand Light, @wght=700';font-variation-settings:'wght' 700;stroke-width:0.59984" />
    <path
       d="m 149.48139,147.51622 q -0.67182,0 -1.1037,-0.40789 -0.43189,-0.43189 -0.43189,-1.05572 v -12.09277 l 0.33591,0.52785 -1.75153,1.29566 q -0.33591,0.26393 -0.83978,0.26393 -0.57584,0 -1.00773,-0.43189 -0.43188,-0.43188 -0.43188,-1.03172 0,-0.7678 0.7438,-1.24767 l 3.45508,-2.30338 q 0.23993,-0.16796 0.52786,-0.23994 0.31191,-0.072 0.57584,-0.072 0.69582,0 1.10371,0.43188 0.40789,0.4079 0.40789,1.03173 v 13.8683 q 0,0.62383 -0.45588,1.05572 -0.43188,0.40789 -1.1277,0.40789 z"
       id="path7482"
       style="font-size:23.9936px;line-height:1.25;font-family:'Quicksand Light';-inkscape-font-specification:'Quicksand Light, @wght=700';font-variation-settings:'wght' 700;stroke-width:0.59984" />
    <path
       d="m 158.8149,147.51622 q -0.67182,0 -1.10371,-0.40789 -0.43188,-0.43189 -0.43188,-1.05572 v -12.09277 l 0.33591,0.52785 -1.75154,1.29566 q -0.33591,0.26393 -0.83977,0.26393 -0.57585,0 -1.00773,-0.43189 -0.43189,-0.43188 -0.43189,-1.03172 0,-0.7678 0.7438,-1.24767 l 3.45508,-2.30338 q 0.23994,-0.16796 0.52786,-0.23994 0.31192,-0.072 0.57585,-0.072 0.69581,0 1.1037,0.43188 0.40789,0.4079 0.40789,1.03173 v 13.8683 q 0,0.62383 -0.45587,1.05572 -0.43189,0.40789 -1.1277,0.40789 z"
       id="path7479"
       style="font-size:23.9936px;line-height:1.25;font-family:'Quicksand Light';-inkscape-font-specification:'Quicksand Light, @wght=700';font-variation-settings:'wght' 700;stroke-width:0.59984" />
    <path
       d="m 168.22039,147.75616 q -0.88776,0 -1.8955,-0.26393 -1.00773,-0.28793 -1.65555,-0.81579 -0.31192,-0.26393 -0.50387,-0.67182 -0.16795,-0.43188 -0.16795,-0.81578 0,-0.40789 0.33591,-0.76779 0.3599,-0.35991 1.00773,-0.35991 0.43188,0 1.07971,0.45588 0.3839,0.23994 0.83977,0.43188 0.45588,0.19195 0.93576,0.19195 1.15169,0 1.99146,-0.40789 0.83978,-0.43188 1.29566,-1.17568 0.45588,-0.74381 0.45588,-1.75154 0,-0.91175 -0.43189,-1.55958 -0.40789,-0.64783 -1.1037,-1.00773 -0.67182,-0.35991 -1.46361,-0.35991 -0.7438,0 -1.29566,0.23994 -0.55185,0.23994 -1.00773,0.50387 -0.45588,0.23993 -0.91176,0.23993 -0.79178,0 -1.17568,-0.33591 -0.3839,-0.3599 -0.47987,-0.83978 -0.096,-0.47987 -0.048,-0.86376 l 0.7438,-5.83045 q 0.096,-0.50387 0.47987,-0.81578 0.40789,-0.33591 0.95975,-0.33591 h 6.93415 q 0.57584,0 0.95974,0.3839 0.3839,0.38389 0.3839,0.95974 0,0.55185 -0.3839,0.93575 -0.3839,0.3599 -0.95974,0.3599 h -6.19035 l 0.26393,-0.21594 -0.64783,4.8707 -0.31192,-0.91175 q 0.14397,-0.23994 0.62384,-0.45588 0.47987,-0.21595 1.1037,-0.35991 0.62384,-0.16795 1.22368,-0.16795 1.60757,0 2.87923,0.7438 1.27166,0.71981 1.99147,1.99147 0.7438,1.24767 0.7438,2.83124 0,1.79952 -0.81578,3.14316 -0.81579,1.34365 -2.30339,2.08745 -1.46361,0.71981 -3.47907,0.71981 z"
       id="path7476"
       style="font-size:23.9936px;line-height:1.25;font-family:'Quicksand Light';-inkscape-font-specification:'Quicksand Light, @wght=700';font-variation-settings:'wght' 700;stroke-width:0.59984" />
    <path
       d="m 181.96869,147.51622 q -0.67182,0 -1.10371,-0.40789 -0.43188,-0.43189 -0.43188,-1.05572 v -12.09277 l 0.33591,0.52785 -1.75153,1.29566 q -0.33591,0.26393 -0.83978,0.26393 -0.57585,0 -1.00773,-0.43189 -0.43188,-0.43188 -0.43188,-1.03172 0,-0.7678 0.7438,-1.24767 l 3.45508,-2.30338 q 0.23993,-0.16796 0.52785,-0.23994 0.31192,-0.072 0.57585,-0.072 0.69582,0 1.10371,0.43188 0.40789,0.4079 0.40789,1.03173 v 13.8683 q 0,0.62383 -0.45588,1.05572 -0.43189,0.40789 -1.1277,0.40789 z"
       id="path7473"
       style="font-size:23.9936px;line-height:1.25;font-family:'Quicksand Light';-inkscape-font-specification:'Quicksand Light, @wght=700';font-variation-settings:'wght' 700;stroke-width:0.59984" />
  </g>
</svg>
