<?xml version="1.0" encoding="UTF-8" standalone="no"?>
<svg
   width="220mm"
   height="220mm"
   version="1.1"
   viewBox="0 0 220 220"
   id="svg28"
   sodipodi:docname="building.svg"
   inkscape:version="1.1.2 (0a00cf5339, 2022-02-04)"
   xmlns:inkscape="http://www.inkscape.org/namespaces/inkscape"
   xmlns:sodipodi="http://sodipodi.sourceforge.net/DTD/sodipodi-0.dtd"
   xmlns="http://www.w3.org/2000/svg"
   xmlns:svg="http://www.w3.org/2000/svg">
  <sodipodi:namedview
     id="namedview30"
     pagecolor="#ffffff"
     bordercolor="#666666"
     borderopacity="1.0"
     inkscape:pageshadow="2"
     inkscape:pageopacity="0.0"
     inkscape:pagecheckerboard="0"
     inkscape:document-units="mm"
     showgrid="false"
     inkscape:zoom="0.66747158"
     inkscape:cx="662.94958"
     inkscape:cy="447.95915"
     inkscape:window-width="1360"
     inkscape:window-height="705"
     inkscape:window-x="0"
     inkscape:window-y="0"
     inkscape:window-maximized="1"
     inkscape:current-layer="svg28" />
  <defs
     id="defs2" />
  <g
     transform="matrix(1.0729493,0,0,1.0729493,-37.846775,-92.609909)"
     fill="#fff"
     id="g26"
     style="fill:#bc8f8f" />
  <path
     id="path2774"
     style="fill:#ffffff;stroke-width:0.126809"
     d="m 157.62247,102.81436 c 0.46532,0.0163 0.90116,0.29065 1.10365,0.7395 l 2.1277,3.99147 c 0.11356,0.25212 0.36558,0.42627 0.64499,0.43715 l 3.78657,0.17968 c 0.27957,0.0127 0.54291,-0.13296 0.68148,-0.37536 l 2.47695,-3.73687 c 0.32455,-0.57108 1.03432,-0.79443 1.62884,-0.51486 l 2.70909,1.27494 c 0.59606,0.2782 0.8726,0.96695 0.64121,1.58202 l -1.30016,4.29013 c -0.10106,0.26299 -0.0434,0.55648 0.1469,0.76479 l 2.55088,2.80171 c 0.19022,0.20731 0.47657,0.29286 0.74795,0.21622 l 4.43054,-0.90238 c 0.63272,-0.1739 1.29323,0.16846 1.51655,0.78632 l 1.01381,2.82051 c 0.22185,0.61365 -0.067,1.30079 -0.66556,1.56802 l -3.99249,2.13062 c 0,0 -0.42174,0.36321 -0.43624,0.64402 l -0.17787,3.78557 c -0.0145,0.27946 0.13095,0.54371 0.37349,0.68337 l 3.73687,2.47783 c 0.56985,0.32332 0.79596,1.03016 0.51393,1.62607 l -1.27405,2.71098 c -0.27959,0.59467 -0.96957,0.87099 -1.58204,0.63935 l -4.29302,-1.29928 c -0.25882,-0.0985 -0.55737,-0.0428 -0.7629,0.1451 l -2.80361,2.55177 c -0.20688,0.18902 -0.29056,0.47751 -0.21809,0.74889 l 0.9052,4.43054 c 0.1737,0.63284 -0.16738,1.29272 -0.78632,1.51466 l -2.8195,1.01658 c -0.61626,0.22198 -1.2994,-0.0695 -1.5708,-0.66838 l -2.12594,-3.99058 c -0.11633,-0.25617 -0.36605,-0.42174 -0.64685,-0.43623 l -3.78556,-0.17879 c -0.28081,-0.0163 -0.5437,0.13241 -0.68336,0.37351 l -2.47594,3.73787 c -0.32474,0.56841 -1.03201,0.79472 -1.62784,0.51394 l -2.70998,-1.27406 c -0.59425,-0.27939 -0.87147,-0.96835 -0.64122,-1.58203 l 1.3003,-4.29011 c 0.0989,-0.2616 0.0442,-0.55742 -0.146,-0.76573 l -2.55089,-2.80272 c -0.18763,-0.20828 -0.47748,-0.29312 -0.74607,-0.21904 l -4.43432,0.90612 c -0.63149,0.17246 -1.29172,-0.16936 -1.51366,-0.78724 l -1.01471,-2.82049 c -0.22199,-0.61366 0.0669,-1.3003 0.66554,-1.56891 l 3.99249,-2.12962 c 0.25333,-0.11506 0.42535,-0.36181 0.43623,-0.64402 l 0.17787,-3.78557 c 0.0145,-0.27942 -0.13059,-0.54197 -0.37442,-0.68055 l -3.73687,-2.47784 c -0.56987,-0.32315 -0.7924,-1.03339 -0.51296,-1.62782 l 1.27405,-2.7091 c 0.28082,-0.59424 0.96975,-0.87397 1.58203,-0.64121 l 4.29012,1.30118 c 0.26301,0.0985 0.5574,0.0408 0.76572,-0.14692 l 2.80359,-2.55277 c 0.20871,-0.1876 0.29203,-0.47868 0.21812,-0.747 l -0.90427,-4.43243 c -0.17535,-0.63267 0.16756,-1.29172 0.78538,-1.51365 l 2.81861,-1.01475 c 0.15414,-0.0554 0.312,-0.0791 0.46711,-0.074 z m 5.06895,12.93357 c -0.76661,-0.19166 -1.58278,0.13982 -2.34863,0.41561 -1.74933,0.62993 -3.15031,1.90138 -3.94189,3.58622 -0.79185,1.68209 -0.87957,3.5721 -0.25086,5.3227 0.63145,1.75072 1.90275,3.15106 3.58622,3.94277 1.6836,0.79186 3.57525,0.87865 5.32458,0.24996 1.74895,-0.63147 3.14741,-1.90516 3.94189,-3.58711 0.79036,-1.6836 0.87974,-3.57197 0.2509,-5.32268 -0.63131,-1.75047 -1.90515,-3.15108 -3.58711,-3.94001 -0.94616,-0.4469 -1.98923,-0.421 -2.97494,-0.66742 z M 142.51601,0.77885758 93.22364,13.891557 v 17.616755 l 49.29237,-13.1127 9.0706,3.71101 V 4.5402961 l -9.0706,-3.71100982 z M 47.431237,150.89594 60.130664,150.58005 V 131.2455 l -12.699427,0.7899 z m 25.686406,-0.68669 16.135011,-0.3974 v -20.48582 l -16.135011,0.99369 z m 31.018957,-0.82617 18.22405,-0.44916 v -21.7916 l -18.22405,1.12252 z m 0,-41.48022 18.22405,-1.79537 V 84.315892 l -18.22405,2.468749 z m -31.018957,3.27249 16.135011,-1.58957 V 89.101031 l -16.135011,2.18549 z m -25.686406,2.75748 12.700501,-1.26351 V 93.334782 L 47.431237,95.072745 Z M 73.117643,72.892523 89.252654,70.110794 V 49.626046 L 73.117643,53.004119 Z M 47.431237,77.699335 60.130664,75.519102 V 56.184556 L 47.431237,58.870148 Z M 104.1366,67.162973 122.36065,64.020519 v -22.13709 l -18.22405,3.82603 z M 142.51601,21.83639 37.841989,48.671228 V 209.88629 l 104.566721,9.31521 62.97783,-10.70224 V 47.335997 Z m -3.5325,4.96709 v 187.37551 l -46.577457,-4.5135 V 167.17 l -22.452538,-0.27545 v 40.83779 L 42.193098,205.34181 V 51.014957 Z M 177.053,142.59596 h 3.25028 c 0.71052,0 1.30214,0.54727 1.35814,1.25782 l 0.70373,4.85284 c 0.0245,0.30056 0.21673,0.5678 0.49753,0.68302 l 3.79802,1.57466 c 0.27969,0.11646 0.60388,0.0651 0.83349,-0.13294 l 3.90232,-2.90244 c 0.53924,-0.46356 1.34634,-0.43156 1.84848,0.0715 l 2.29825,2.2974 c 0.50325,0.50317 0.53374,1.30943 0.0724,1.85009 l -2.90405,3.9007 c -0.19934,0.23058 -0.24903,0.55276 -0.1314,0.83348 l 1.5738,3.79728 c 0.11646,0.28166 0.37893,0.47237 0.68302,0.49594 l 4.85359,0.70612 c 0.70946,0.0561 1.25771,0.64783 1.25771,1.35964 v 3.24878 c 0,0.7105 -0.54753,1.30449 -1.25696,1.35803 l -4.85445,0.70452 c -0.30406,0.0247 -0.56575,0.21667 -0.68221,0.49754 l -1.57381,3.79802 c -0.11738,0.2819 -0.0653,0.60389 0.13049,0.83348 l 2.90405,3.90232 c 0.46136,0.54053 0.43203,1.3444 -0.0725,1.85008 l -2.29825,2.2974 c -0.50201,0.50333 -1.30921,0.5333 -1.84847,0.0708 l -3.90147,-2.90405 c -0.2294,-0.19549 -0.55302,-0.24838 -0.83268,-0.13048 l -3.79964,1.57305 c -0.28083,0.11785 -0.47287,0.38066 -0.49752,0.68462 l -0.70371,4.85284 c -0.056,0.70934 -0.6464,1.25782 -1.35814,1.25782 h -3.25029 c -0.71156,0 -1.30213,-0.54844 -1.35814,-1.25782 l -0.70452,-4.85284 c -0.0236,-0.30396 -0.21589,-0.56677 -0.49673,-0.68462 l -3.79964,-1.57305 c -0.28084,-0.1177 -0.60177,-0.065 -0.8335,0.13048 l -3.90071,2.90405 c -0.53921,0.46232 -1.34494,0.43233 -1.84922,-0.0708 l -2.2974,-2.2974 c -0.50324,-0.50567 -0.53371,-1.30953 -0.0724,-1.85008 l 2.90328,-3.90232 c 0.19702,-0.22952 0.24983,-0.55158 0.13217,-0.83348 l -1.5738,-3.79802 c -0.11414,-0.28087 -0.37968,-0.47288 -0.68142,-0.49754 l -4.85681,-0.70452 c -0.70814,-0.0536 -1.25535,-0.64757 -1.25535,-1.35803 v -3.24878 c 0,-0.71167 0.5471,-1.30375 1.25535,-1.35964 l 4.85681,-0.70452 c 0.30174,-0.0245 0.56728,-0.21567 0.68142,-0.49754 l 1.5738,-3.79728 c 0.11754,-0.27967 0.0648,-0.6023 -0.13217,-0.83189 l -2.90328,-3.90232 c -0.46123,-0.54051 -0.43077,-1.34687 0.0724,-1.85008 l 2.2974,-2.2974 c 0.50435,-0.50335 1.31007,-0.53411 1.84922,-0.0715 l 3.90071,2.90244 c 0.23176,0.19811 0.55266,0.24941 0.8335,0.13294 l 3.79964,-1.57466 c 0.2806,-0.11523 0.47389,-0.3801 0.49515,-0.68302 l 0.7061,-4.85285 c 0.0547,-0.71051 0.65159,-1.34261 1.35814,-1.25782 z m 1.62477,14.71872 c -2.01639,0 -3.91433,0.78244 -5.33996,2.2107 -1.42584,1.42585 -2.21146,3.32282 -2.21146,5.33921 0,2.01758 0.78573,3.91273 2.21146,5.34082 1.42573,1.42467 3.32357,2.20984 5.33996,2.20984 2.01758,0 3.91294,-0.78517 5.33996,-2.20984 1.42584,-1.42809 2.2107,-3.32324 2.2107,-5.34082 0,-2.01639 -0.78493,-3.91347 -2.2107,-5.33921 -1.42692,-1.4282 -3.32228,-2.2107 -5.33996,-2.2107 z"
     sodipodi:nodetypes="cccccccccccccccccccccccccccccccccccccccccccccccccccccccccccccccccccsscccccccssccccccccccccccccccccccccccccccccccccccccccccccccccccccccccccccccccccccsccccccccccccccssccccccccccccccssccccccccccccccssccccccccccccccscscscscscs" />
</svg>
