<?xml version="1.0" encoding="UTF-8" standalone="no"?>
<!-- Created with Inkscape (http://www.inkscape.org/) -->

<svg
   version="1.1"
   id="svg840"
   xml:space="preserve"
   width="56"
   height="56"
   viewBox="0 0 56.000001 56.000001"
   sodipodi:docname="my-company-logo-inkscape.svg"
   inkscape:version="1.1.2 (0a00cf5339, 2022-02-04)"
   xmlns:inkscape="http://www.inkscape.org/namespaces/inkscape"
   xmlns:sodipodi="http://sodipodi.sourceforge.net/DTD/sodipodi-0.dtd"
   xmlns="http://www.w3.org/2000/svg"
   xmlns:svg="http://www.w3.org/2000/svg"><sodipodi:namedview
     id="namedview18"
     pagecolor="#ffffff"
     bordercolor="#666666"
     borderopacity="1.0"
     inkscape:pageshadow="2"
     inkscape:pageopacity="0.0"
     inkscape:pagecheckerboard="true"
     showgrid="false"
     inkscape:zoom="2.56"
     inkscape:cx="-19.726562"
     inkscape:cy="16.210937"
     inkscape:window-width="1360"
     inkscape:window-height="705"
     inkscape:window-x="0"
     inkscape:window-y="0"
     inkscape:window-maximized="1"
     inkscape:current-layer="g846"
     fit-margin-top="0"
     fit-margin-left="0"
     fit-margin-right="0"
     fit-margin-bottom="0" /><defs
     id="defs844" /><g
     id="g846"
     transform="matrix(1.3333333,0,0,-1.3333333,-2191.7569,953.68324)"><circle
       style="font-variation-settings:'wght' 700;opacity:1;fill:#ffffff;fill-opacity:1;stroke:none;stroke-width:0.997402;stroke-miterlimit:4;stroke-dasharray:none"
       id="path1941"
       cx="1664.8177"
       cy="-694.26245"
       transform="scale(1,-1)"
       r="21" /><g
       id="g2111"
       transform="matrix(2.6597405,0,0,2.6597405,-2696.0492,-1193.6207)"><g
         id="g856"
         transform="matrix(0.01874994,0,0,0.01874994,1635.1185,712.78818)"
         style="fill:#0076c8;fill-opacity:1"><path
           d="m 0,0 c -1.452,3.472 1.359,6.284 4.831,6.284 3.472,0 6.283,-2.812 5.491,-6.284 v -27.453 l 16.512,14.886 c 1.812,1.732 3.305,2.812 5.537,2.812 3.384,0 5.537,-2.732 5.537,-5.631 0,-2.145 -1.16,-3.798 -2.891,-5.45 l -9.93,-8.53 11.828,-15.945 c 1.072,-1.492 1.572,-2.652 1.572,-4.058 0,-3.377 -2.732,-5.704 -5.87,-5.704 -2.478,0 -3.971,0.826 -5.457,2.899 l -10.994,15.133 -5.844,-4.551 v -7.19 c 0.792,-3.479 -2.019,-6.291 -5.491,-6.291 -3.472,0 -6.283,2.812 -4.831,6.291 z"
           style="fill:#2b8ec1;fill-opacity:1;fill-rule:nonzero;stroke:none"
           id="path858" /></g><g
         id="g860"
         transform="matrix(0.01874994,0,0,0.01874994,1636.052,712.48728)"
         style="fill:#0076c8;fill-opacity:1"><path
           d="M 0,0 C -0.907,3.479 1.904,6.291 5.376,6.291 8.848,6.291 10.322,0 10.322,0 v -0.461 c 2.989,3.84 6.904,7.329 13.471,7.329 5.97,0 10.482,-2.644 12.866,-7.247 4.012,4.692 8.779,7.247 15.01,7.247 9.63,0 15.428,-5.79 15.428,-16.78 v -22.832 c 0,0 -3.177,-6.276 -6.656,-6.276 -3.471,0 -3.667,6.276 -3.667,6.276 v 18.782 c 0,6.163 -2.744,9.328 -7.618,9.328 -4.882,0 -7.866,-3.165 -7.866,-9.328 v -18.782 c 0,0 -4.902,-6.276 -8.374,-6.276 -3.479,0 -7.109,6.276 -7.109,6.276 v 18.782 c 0,6.163 -2.738,9.328 -7.619,9.328 -4.866,0 -7.866,-3.165 -7.866,-9.328 v -18.782 c 0,0 -1.474,-6.276 -4.946,-6.276 -3.472,0 -6.283,2.805 -5.376,6.276 z"
           style="fill:#2b8ec1;fill-opacity:1;fill-rule:nonzero;stroke:none"
           id="path862" /></g><g
         id="g864"
         transform="matrix(0.01874994,0,0,0.01874994,1644.7126,712.20962)"
         style="fill:#092c4f;fill-opacity:1"><path
           d="M 0,0 H -376.775 V -15.484 H -1.306 c 14.943,0 27.113,-11.859 27.113,-26.449 v -210.351 c 0,-14.568 -12.17,-26.426 -27.113,-26.426 H -545.8 c -14.942,0 -27.105,11.858 -27.105,26.426 v 212.006 c 0,13.677 12.326,24.794 27.468,24.794 h 13.823 V 0 h -17.846 c -24.307,0 -44.09,-19.141 -44.09,-42.663 v -208.869 c 0,-23.521 19.783,-42.663 44.09,-42.663 H 2.362 c 24.306,0 44.09,19.142 44.09,42.663 v 209.775 c 0,23.699 -19.785,42.984 -44.093,42.984"
           style="fill:#0069a6;fill-opacity:1;fill-rule:nonzero;stroke:none"
           id="path866" /></g><path
         d="m 1635.6992,710.4162 -0.2406,-0.0654 c -0.036,-0.01 -0.085,-0.0187 -0.1204,-0.0187 -0.1604,0 -0.2986,0.1401 -0.2986,0.30846 0,0.14486 0.089,0.26634 0.2273,0.30834 l 0.4412,0.13562 c 0.1291,0.0375 0.2273,0.0606 0.3207,0.0606 0.1921,0 0.3478,-0.1557 0.3478,-0.34778 v -2.63631 c 0,-0.1687 -0.1125,-0.32667 -0.2785,-0.35657 -0.2139,-0.0385 -0.3989,0.13303 -0.3989,0.34991 z"
         style="fill:#0069a6;fill-opacity:1;fill-rule:nonzero;stroke:none;stroke-width:0.0187499"
         id="path870" /><g
         id="g872"
         transform="matrix(0.01874994,0,0,0.01874994,1637.7314,710.4162)"
         style="fill:#092c4f;fill-opacity:1"><path
           d="m 0,0 -12.836,-3.486 c -1.908,-0.514 -4.52,-1 -6.422,-1 -8.556,0 -15.918,7.472 -15.918,16.451 0,7.726 4.749,14.205 12.124,16.445 l 23.529,7.233 c 6.891,2 12.124,3.232 17.114,3.232 10.238,0 18.538,-8.3 18.538,-18.538 v -140.629 c 0,-9.001 -6.013,-17.425 -14.874,-19.007 C 9.847,-141.335 0,-132.19 0,-120.632 Z"
           style="fill:#0069a6;fill-opacity:1;fill-rule:nonzero;stroke:none"
           id="path874" /></g><path
         d="m 1639.4449,707.91481 c -0.1025,0.0828 -0.1687,0.22219 -0.1254,0.40847 0.034,0.14505 0.1567,0.25568 0.3056,0.25879 0.085,0.002 0.1409,-0.0236 0.1966,-0.0704 0.1929,-0.15534 0.3768,-0.22579 0.5963,-0.22579 0.2919,0 0.507,0.17562 0.507,0.48662 v 0.0102 c 0,0.30079 -0.2285,0.47655 -0.556,0.47655 -0.2646,0 -0.3812,-0.0905 -0.4755,-0.0905 -0.099,0 -0.1749,0.0452 -0.3141,0.15579 -0.094,0.0751 -0.1345,0.18046 -0.1255,0.31071 l 0.063,1.18914 c 0.01,0.18555 0.1389,0.33112 0.3049,0.33112 h 1.3336 c 0.1426,0 0.2743,-0.0888 0.3169,-0.22488 0.073,-0.23477 -0.087,-0.45253 -0.2869,-0.45253 h -1.0584 l -0.036,-0.60682 c 0.1256,0.0349 0.2375,0.0601 0.4126,0.0601 0.619,0 1.0989,-0.33113 1.0989,-1.12378 v -0.01 c 0,-0.74248 -0.4799,-1.2141 -1.1707,-1.2141 -0.4351,0 -0.7354,0.13043 -0.9868,0.33114"
         style="fill:#0069a6;fill-opacity:1;fill-rule:nonzero;stroke:none;stroke-width:0.0187499"
         id="path878" /><g
         id="g880"
         transform="matrix(0.01874994,0,0,0.01874994,1642.7997,710.4162)"
         style="fill:#092c4f;fill-opacity:1"><path
           d="m 0,0 -12.819,-3.486 c -1.922,-0.514 -4.527,-1 -6.427,-1 -8.556,0 -15.93,7.472 -15.93,16.451 0,7.726 4.762,14.205 12.128,16.445 l 23.525,7.233 c 6.889,2 12.121,3.232 17.118,3.232 10.236,0 18.534,-8.298 18.534,-18.535 v -141.106 c 0,-7.927 -4.753,-15.415 -12.288,-17.877 C 11.417,-142.702 0,-133.063 0,-120.632 Z"
           style="fill:#0069a6;fill-opacity:1;fill-rule:nonzero;stroke:none"
           id="path882" /></g></g></g></svg>
