<svg width="56" height="56" version="1.1" viewBox="0 0 56 56" xml:space="preserve" xmlns="http://www.w3.org/2000/svg"><g transform="matrix(1.3333 0 0 -1.3333 -2191.8 953.68)"><circle transform="scale(1,-1)" cx="1664.8" cy="-694.26" r="21" fill="#fff" style="font-variation-settings:'wght' 700"/><g transform="matrix(2.6597 0 0 2.6597 -2696 -1193.6)"><g transform="matrix(.01875 0 0 .01875 1635.1 712.79)" fill="#0076c8"><path d="m0 0c-1.452 3.472 1.359 6.284 4.831 6.284s6.283-2.812 5.491-6.284v-27.453l16.512 14.886c1.812 1.732 3.305 2.812 5.537 2.812 3.384 0 5.537-2.732 5.537-5.631 0-2.145-1.16-3.798-2.891-5.45l-9.93-8.53 11.828-15.945c1.072-1.492 1.572-2.652 1.572-4.058 0-3.377-2.732-5.704-5.87-5.704-2.478 0-3.971 0.826-5.457 2.899l-10.994 15.133-5.844-4.551v-7.19c0.792-3.479-2.019-6.291-5.491-6.291s-6.283 2.812-4.831 6.291z" fill="#2b8ec1"/></g><g transform="matrix(.01875 0 0 .01875 1636.1 712.49)" fill="#0076c8"><path d="m0 0c-0.907 3.479 1.904 6.291 5.376 6.291s4.946-6.291 4.946-6.291v-0.461c2.989 3.84 6.904 7.329 13.471 7.329 5.97 0 10.482-2.644 12.866-7.247 4.012 4.692 8.779 7.247 15.01 7.247 9.63 0 15.428-5.79 15.428-16.78v-22.832s-3.177-6.276-6.656-6.276c-3.471 0-3.667 6.276-3.667 6.276v18.782c0 6.163-2.744 9.328-7.618 9.328-4.882 0-7.866-3.165-7.866-9.328v-18.782s-4.902-6.276-8.374-6.276c-3.479 0-7.109 6.276-7.109 6.276v18.782c0 6.163-2.738 9.328-7.619 9.328-4.866 0-7.866-3.165-7.866-9.328v-18.782s-1.474-6.276-4.946-6.276-6.283 2.805-5.376 6.276z" fill="#2b8ec1"/></g><g transform="matrix(.01875 0 0 .01875 1644.7 712.21)" fill="#092c4f"><path d="m0 0h-376.78v-15.484h375.47c14.943 0 27.113-11.859 27.113-26.449v-210.35c0-14.568-12.17-26.426-27.113-26.426h-544.49c-14.942 0-27.105 11.858-27.105 26.426v212.01c0 13.677 12.326 24.794 27.468 24.794h13.823v15.484h-17.846c-24.307 0-44.09-19.141-44.09-42.663v-208.87c0-23.521 19.783-42.663 44.09-42.663h551.82c24.306 0 44.09 19.142 44.09 42.663v209.78c0 23.699-19.785 42.984-44.093 42.984" fill="#0069a6"/></g><path d="m1635.7 710.42-0.2406-0.0654c-0.036-0.01-0.085-0.0187-0.1204-0.0187-0.1604 0-0.2986 0.1401-0.2986 0.30846 0 0.14486 0.089 0.26634 0.2273 0.30834l0.4412 0.13562c0.1291 0.0375 0.2273 0.0606 0.3207 0.0606 0.1921 0 0.3478-0.1557 0.3478-0.34778v-2.6363c0-0.1687-0.1125-0.32667-0.2785-0.35657-0.2139-0.0385-0.3989 0.13303-0.3989 0.34991z" fill="#0069a6"/><g transform="matrix(.01875 0 0 .01875 1637.7 710.42)" fill="#092c4f"><path d="m0 0-12.836-3.486c-1.908-0.514-4.52-1-6.422-1-8.556 0-15.918 7.472-15.918 16.451 0 7.726 4.749 14.205 12.124 16.445l23.529 7.233c6.891 2 12.124 3.232 17.114 3.232 10.238 0 18.538-8.3 18.538-18.538v-140.63c0-9.001-6.013-17.425-14.874-19.007-11.408-2.036-21.255 7.109-21.255 18.667z" fill="#0069a6"/></g><path d="m1639.4 707.91c-0.1025 0.0828-0.1687 0.22219-0.1254 0.40847 0.034 0.14505 0.1567 0.25568 0.3056 0.25879 0.085 2e-3 0.1409-0.0236 0.1966-0.0704 0.1929-0.15534 0.3768-0.22579 0.5963-0.22579 0.2919 0 0.507 0.17562 0.507 0.48662v0.0102c0 0.30079-0.2285 0.47655-0.556 0.47655-0.2646 0-0.3812-0.0905-0.4755-0.0905-0.099 0-0.1749 0.0452-0.3141 0.15579-0.094 0.0751-0.1345 0.18046-0.1255 0.31071l0.063 1.1891c0.01 0.18555 0.1389 0.33112 0.3049 0.33112h1.3336c0.1426 0 0.2743-0.0888 0.3169-0.22488 0.073-0.23477-0.087-0.45253-0.2869-0.45253h-1.0584l-0.036-0.60682c0.1256 0.0349 0.2375 0.0601 0.4126 0.0601 0.619 0 1.0989-0.33113 1.0989-1.1238v-0.01c0-0.74248-0.4799-1.2141-1.1707-1.2141-0.4351 0-0.7354 0.13043-0.9868 0.33114" fill="#0069a6"/><g transform="matrix(.01875 0 0 .01875 1642.8 710.42)" fill="#092c4f"><path d="m0 0-12.819-3.486c-1.922-0.514-4.527-1-6.427-1-8.556 0-15.93 7.472-15.93 16.451 0 7.726 4.762 14.205 12.128 16.445l23.525 7.233c6.889 2 12.121 3.232 17.118 3.232 10.236 0 18.534-8.298 18.534-18.535v-141.11c0-7.927-4.753-15.415-12.288-17.877-12.424-4.059-23.841 5.58-23.841 18.011z" fill="#0069a6"/></g></g></g></svg>
