<?xml version="1.0" encoding="UTF-8" standalone="no"?>
<svg
   fill="#ffffff"
   version="1.1"
   id="Layer_1"
   viewBox="0 0 242.80794 242.80794"
   enable-background="new 0 0 209 256"
   xml:space="preserve"
   sodipodi:docname="qr2.svg"
   inkscape:version="1.1.2 (0a00cf5339, 2022-02-04)"
   width="242.80794"
   height="242.80794"
   xmlns:inkscape="http://www.inkscape.org/namespaces/inkscape"
   xmlns:sodipodi="http://sodipodi.sourceforge.net/DTD/sodipodi-0.dtd"
   xmlns="http://www.w3.org/2000/svg"
   xmlns:svg="http://www.w3.org/2000/svg"><defs
     id="defs10"><style
       type="text/css"
       id="style46">
            .st0 {
                fill-rule: evenodd;
                clip-rule: evenodd;
            }
        </style></defs><sodipodi:namedview
     id="namedview8"
     pagecolor="#000000"
     bordercolor="#666666"
     borderopacity="1.0"
     inkscape:pageshadow="2"
     inkscape:pageopacity="0"
     inkscape:pagecheckerboard="0"
     showgrid="false"
     inkscape:zoom="1.0839844"
     inkscape:cx="41.974775"
     inkscape:cy="82.104504"
     inkscape:window-width="1360"
     inkscape:window-height="705"
     inkscape:window-x="0"
     inkscape:window-y="0"
     inkscape:window-maximized="1"
     inkscape:current-layer="Layer_1"
     fit-margin-top="0"
     fit-margin-left="0"
     fit-margin-right="0"
     fit-margin-bottom="0" /><g
     id="SVGRepo_bgCarrier"
     stroke-width="0"
     transform="translate(-238.93337,-13.837837)" /><g
     id="SVGRepo_tracerCarrier"
     stroke-linecap="round"
     stroke-linejoin="round"
     transform="translate(-238.93337,-13.837837)" /><g
     id="SVGRepo_bgCarrier-5"
     stroke-width="0"
     transform="matrix(0.18136854,0,0,0.18136854,-137.49241,84.443896)"
     style="fill:#000000" /><g
     id="SVGRepo_tracerCarrier-6"
     stroke-linecap="round"
     stroke-linejoin="round"
     transform="matrix(0.18136854,0,0,0.18136854,-137.49241,84.443896)"
     style="fill:#000000" /><g
     id="SVGRepo_bgCarrier-1"
     stroke-width="0"
     transform="translate(183.43635,-313.91266)"
     style="fill:#ff2a2a" /><g
     id="SVGRepo_tracerCarrier-2"
     stroke-linecap="round"
     stroke-linejoin="round"
     transform="translate(183.43635,-313.91266)"
     style="fill:#ff2a2a" /><g
     id="SVGRepo_bgCarrier-0"
     stroke-width="0"
     transform="matrix(0.62162144,0,0,0.62162144,-120.1998,123.30069)"
     style="fill:#ffffff" /><g
     id="SVGRepo_tracerCarrier-9"
     stroke-linecap="round"
     stroke-linejoin="round"
     transform="matrix(0.62162144,0,0,0.62162144,-120.1998,123.30069)"
     style="fill:#ffffff" /><g
     id="g3570"
     transform="matrix(1.0021565,0,0,1.0021565,512.40154,-3.3694478)"><path
       id="path48"
       style="fill:#ffffff;stroke:none;stroke-width:2.07437"
       d="m 176.40581,30.975935 c -35.05893,-0.582213 -36.40665,19.269173 -70.16878,42.485574 l -1.14187,-1.309729 c -2.82938,-3.209042 -2.31439,-2.075696 -6.124596,0.812783 l -1.835384,1.395866 c -6.283344,4.757917 -3.379571,2.962278 -10.530838,1.572558 -16.134658,-3.126094 -34.884359,6.492451 -44.590417,20.030238 -8.411916,11.732755 -6.871582,18.171725 -4.887741,31.038145 1.807268,11.79866 -20.893848,57.52716 -35.2191174,87.7673 l 15.1314544,6.91086 8.777172,-21.42168 21.918634,10.76495 c 5.919984,2.90226 10.527827,6.65756 17.128073,3.49187 4.461929,-2.14231 13.701052,-13.75446 17.454954,-17.91435 l 15.707913,-17.42624 c 2.192343,-4.72499 2.135803,-9.72288 -0.368845,-15.04532 5.371608,-1.36424 9.290548,-4.31682 11.851608,-8.78601 9.21973,-16.06676 -0.67988,-20.51828 -3.45874,-33.02593 -0.18513,-0.86363 -0.36027,-1.75404 -0.46823,-2.64816 -1.83074,-13.55144 3.3752,-20.136941 11.44964,-28.546793 2.56119,-2.662589 2.52983,-1.779174 0.053,-4.547608 l -1.00051,-1.121995 c 33.11707,-24.171519 33.56065,-46.36259 77.24529,-43.282895 3.08797,-0.595689 3.56808,-9.483149 0.36001,-9.642963 -6.57716,-0.966962 -12.27426,-1.467298 -17.28267,-1.550471 z M 62.85032,145.1631 c 1.516894,-0.0255 3.05005,0.16424 4.598407,0.54773 l 11.014534,3.65532 c -1.325734,2.91044 -0.587918,5.62944 1.013769,7.65077 -17.254453,4.8776 -20.983124,27.38276 -25.152095,45.11165 L 30.341214,189.92578 c 5.455406,-11.25592 14.5082,-37.00312 25.079212,-42.76386 2.42027,-1.31882 4.90174,-1.95627 7.429894,-1.99882 z m 22.046736,19.69673 c 0.463662,-0.009 0.923648,0.0414 1.378196,0.15461 10.885819,2.76898 -2.431505,15.63587 -5.863962,18.46429 l 2.120303,-18.0557 c 0.805621,-0.36016 1.592693,-0.54711 2.365463,-0.5632 z m -9.804194,1.71832 c 2.008887,13.32493 2.914615,18.72117 -4.322326,27.66996 l -3.975569,4.6713 c -2.665149,4.48802 -5.806868,1.55863 -4.770682,-0.2783 4.036843,-13.7734 8.432524,-26.97457 13.068577,-32.06296 z" /><path
       style="fill:#ffffff;stroke:none;stroke-width:2.07437"
       d="m 193.32848,42.169369 c -1.52631,9.382846 -7.51816,14.383014 -7.23634,19.000265 0.28183,4.617248 2.65613,9.127564 8.92979,8.744642 6.27366,-0.382923 8.08306,-5.127812 7.79998,-9.765765 -0.28182,-4.61725 -6.83731,-8.851579 -9.49343,-17.979142 z"
       id="path1177" /></g><g
     id="SVGRepo_bgCarrier-6"
     stroke-width="0"
     transform="matrix(4.3579814,0,0,4.3579814,122.79898,129.25665)" /><g
     id="SVGRepo_tracerCarrier-26"
     stroke-linecap="round"
     stroke-linejoin="round"
     transform="matrix(4.3579814,0,0,4.3579814,122.79898,129.25665)" /><g
     id="SVGRepo_bgCarrier-2"
     stroke-width="0"
     transform="matrix(0.39760034,0,0,0.39760034,19.382041,20.126712)"
     style="fill:#ffffff" /><g
     id="SVGRepo_tracerCarrier-0"
     stroke-linecap="round"
     stroke-linejoin="round"
     transform="matrix(0.39760034,0,0,0.39760034,19.382041,20.126712)"
     style="fill:#ffffff" /><g
     id="SVGRepo_bgCarrier-59"
     stroke-width="0"
     transform="matrix(0.31467483,0,0,0.31467483,-80.7182,247.69982)" /><g
     id="SVGRepo_tracerCarrier-22"
     stroke-linecap="round"
     stroke-linejoin="round"
     transform="matrix(0.31467483,0,0,0.31467483,-80.7182,247.69982)" /><g
     id="SVGRepo_iconCarrier-8"
     transform="matrix(0.42045131,0,0,0.42045131,261.31278,21.681844)"> <g
   id="g4479"> <path
   d="m 201,406.3 v 0 0 c 0,4.1 -0.1,9.2 -0.8,14.3 l -2.7,48.9 c 0,3.6 -2.9,6.5 -6.5,6.5 l -76.6,-0.4 c -3.6,0 -6.5,-2.9 -6.5,-6.5 L 106.5,428.7 33.8,341.1 C 23.1,329.7 15.8,316.9 13.5,301.5 L 12.8,297 0.1,174.1 C -0.5,168 1.6,161.8 6.3,158 c 5.7,-4.6 14.7,-6.3 21.4,1.3 4.7,5.4 7,22.2 7.8,26.7 2.7,16.1 5.4,39.1 5.8,55.3 0,1.1 0.1,2.6 0.2,3.7 0.4,7.1 2.1,13.7 5.1,20.2 16.4,35.6 49.3,80.6 49.3,80.6 l 1.8,2.7 c 1.4,2 4.1,2.7 6.3,1.5 2.4,-1.3 3.2,-4.4 1.8,-6.7 L 62.2,272.2 c -4.7,-7.9 -2,-19.1 6.5,-24.3 8.5,-5.2 19.7,-2.6 24.4,5.3 l 45.3,58.2 c 3,3.8 8.5,9.3 12.4,12.1 40.7,29.3 46.2,59.1 49.8,74.3 0,0.2 0.3,3.6 0.4,8.5 z M 46,167.9 c 1.3,4.3 2.2,8.7 2.9,12.9 2.3,13.9 5.8,39 6,52.3 0,1.4 0.1,2.7 0.1,4.1 1.5,-1.3 3.1,-2.6 4.9,-3.7 2.2,-1.4 4.5,-2.4 6.9,-3.2 0.1,-0.2 0.2,-0.3 0.3,-0.4 -1.7,-12.7 -6.2,-36.7 -9.5,-49.1 -1.7,-6.3 -5.3,-10.9 -11.6,-12.9 z m 24.4,17.6 c 2,9.2 7.2,26.1 8.4,35.1 l 0.8,6.1 c 0.1,0.6 0.1,1.2 0.1,1.8 3.7,0.1 7.4,0.9 10.9,2.2 -1.2,-8.2 -6.7,-24.6 -8.7,-32.3 -1.8,-6.3 -5.4,-10.8 -11.5,-12.9 z m 390.3,-26.2 c -4.7,5.4 -7,22.2 -7.8,26.7 -2.7,16.1 -5.4,39.1 -5.8,55.3 0,1.1 -0.1,2.6 -0.2,3.7 -0.4,7.1 -2.1,13.7 -5.1,20.2 -16.4,35.6 -49.3,80.6 -49.3,80.6 l -1.8,2.7 c -1.4,2 -4.1,2.7 -6.3,1.5 -2.4,-1.3 -3.2,-4.4 -1.8,-6.7 l 43.6,-71.1 c 4.7,-7.9 2,-19.1 -6.5,-24.3 -8.5,-5.2 -19.7,-2.6 -24.4,5.3 L 350,311.4 c -3,3.8 -8.5,9.3 -12.4,12.1 -40.7,29.3 -46.2,59.1 -49.8,74.3 0,0 -0.3,3.4 -0.4,8.3 v 0 c 0,4.1 0.1,9.2 0.8,14.3 l 2.7,48.9 c 0,3.6 2.9,6.5 6.5,6.5 l 76.6,-0.4 c 3.6,0 6.5,-2.9 6.5,-6.5 l 1.4,-40.4 72.7,-87.6 c 10.7,-11.4 18,-24.2 20.3,-39.6 l 0.7,-4.5 12.7,-122.9 c 0.6,-6.1 -1.5,-12.3 -6.2,-16.1 -5.7,-4.4 -14.7,-6.1 -21.4,1.5 z m -27.2,77.8 c 0,-1.4 0.1,-2.7 0.1,-4.1 0.3,-13.3 3.7,-38.4 6,-52.3 0.7,-4.2 1.5,-8.5 2.9,-12.9 -6.3,2.1 -10,6.6 -11.6,12.8 -3.3,12.4 -7.8,36.4 -9.5,49.1 0.1,0.2 0.2,0.3 0.3,0.4 2.4,0.8 4.7,1.9 6.9,3.2 1.7,1.3 3.3,2.5 4.9,3.8 z m -23.9,-16.6 c 1.2,-8.9 6.3,-25.8 8.4,-35.1 -6.2,2.1 -9.8,6.6 -11.4,12.8 -2,7.7 -7.5,24.1 -8.7,32.3 3.5,-1.3 7.2,-2 10.9,-2.2 0,-0.6 0,-1.2 0.1,-1.8 z m -23.1,0.5 c 0,-6 -4.8,-10.8 -10.8,-10.8 H 116.2 c -6,0 -10.8,4.8 -10.8,10.8 0,6 4.8,10.8 10.8,10.8 h 259.5 c 6,0 10.8,-4.8 10.8,-10.8 z m -38.7,39.1 c 0,-6 -4.8,-10.8 -10.8,-10.8 H 135.4 c -6,0 -10.8,4.8 -10.8,10.8 0,6 4.8,10.8 10.8,10.8 H 337 c 6,0 10.8,-4.8 10.8,-10.8 z m -176.3,28.4 c -6,0 -10.8,4.8 -10.8,10.8 0,6 4.8,10.8 10.8,10.8 h 129.3 c 6,0 10.8,-4.8 10.8,-10.8 0,-6 -4.8,-10.8 -10.8,-10.8 z M 324.8,87.4 c -8.5,0 -15.3,6.9 -15.3,15.3 0,8.5 6.9,15.3 15.3,15.3 8.4,0 15.3,-6.9 15.3,-15.3 0,-8.5 -6.9,-15.3 -15.3,-15.3 z m -161.2,0 c -8.5,0 -15.3,6.9 -15.3,15.3 0,8.5 6.9,15.3 15.3,15.3 8.4,0 15.3,-6.9 15.3,-15.3 0.1,-8.5 -6.8,-15.3 -15.3,-15.3 z m 226.5,80.4 c 0,13.9 -11.3,25.3 -25.3,25.3 H 123.6 c -13.9,0 -25.3,-11.3 -25.3,-25.3 V 37.7 c 0,-13.9 11.3,-25.3 25.3,-25.3 h 241.2 c 13.9,0 25.3,11.3 25.3,25.3 z M 368.5,65 c -2,0.5 -4.1,0.8 -6.3,0.8 -14.1,0 -25.6,-11.5 -25.6,-25.6 0,-2.2 0.3,-4.2 0.8,-6.2 H 149.5 c 0.3,1.5 0.4,3.1 0.4,4.7 0,14.1 -11.5,25.6 -25.6,25.6 -1.5,0 -3,-0.1 -4.5,-0.4 v 77.7 c 1.5,-0.3 3,-0.4 4.5,-0.4 14.1,0 25.6,11.5 25.6,25.6 0,1.6 -0.2,3.2 -0.4,4.7 h 187.2 c -0.1,-1 -0.2,-2.1 -0.2,-3.2 0,-14.1 11.5,-25.6 25.6,-25.6 2.2,0 4.3,0.3 6.3,0.8 V 65 Z m -68.9,37.7 c 0,30.6 -24.8,55.4 -55.4,55.4 -30.6,0 -55.4,-24.8 -55.4,-55.4 0,-30.6 24.8,-55.4 55.4,-55.4 30.6,0 55.4,24.8 55.4,55.4 z m -44.9,-3.4 c -3,-1.7 -6.1,-2.9 -9.3,-4.2 -1.8,-0.8 -3.6,-1.6 -5.1,-2.9 -3,-2.4 -2.4,-6.3 1.1,-7.9 1,-0.4 2,-0.6 3.1,-0.6 4.1,-0.2 8,0.5 11.7,2.3 1.8,0.9 2.5,0.6 3.1,-1.3 0.7,-2 1.2,-4.1 1.8,-6.2 0.4,-1.4 -0.1,-2.3 -1.4,-2.9 -2.4,-1 -4.8,-1.8 -7.4,-2.2 -3.4,-0.5 -3.4,-0.5 -3.4,-3.9 0,-4.8 0,-4.8 -4.8,-4.8 -0.7,0 -1.4,0 -2.1,0 -2.2,0.1 -2.6,0.4 -2.7,2.7 0,1 0,2 0,3 0,3 0,2.9 -2.9,4 -6.9,2.5 -11.2,7.2 -11.6,14.7 -0.4,6.7 3.1,11.2 8.5,14.4 3.4,2 7.1,3.2 10.7,4.8 1.4,0.6 2.7,1.3 3.9,2.3 3.4,2.8 2.8,7.6 -1.3,9.3 -2.2,1 -4.5,1.2 -6.8,0.9 -3.7,-0.5 -7.1,-1.4 -10.4,-3.1 -1.9,-1 -2.5,-0.7 -3.1,1.4 -0.6,1.8 -1.1,3.6 -1.6,5.4 -0.7,2.4 -0.4,3 1.9,4.2 3,1.4 6.2,2.2 9.4,2.7 2.5,0.4 2.6,0.5 2.6,3.1 0,1.2 0,2.4 0,3.6 0,1.5 0.7,2.4 2.3,2.4 1.8,0 3.5,0 5.3,0 1.4,0 2.2,-0.8 2.2,-2.3 0,-1.6 0.1,-3.3 0,-4.9 -0.1,-1.7 0.6,-2.5 2.2,-2.9 3.7,-1 6.8,-3 9.2,-5.9 7,-8.1 4.4,-20 -5.1,-25.2 z"
   id="path4477" /> </g> </g><g
     id="SVGRepo_bgCarrier-9"
     stroke-width="0"
     transform="translate(48.916904,33.972088)" /><g
     id="SVGRepo_tracerCarrier-7"
     stroke-linecap="round"
     stroke-linejoin="round"
     transform="translate(48.916904,33.972088)" /><g
     id="SVGRepo_bgCarrier-3"
     stroke-width="0"
     transform="matrix(0.43623021,0,0,0.43623021,12.120044,8.9718796)"
     style="fill:#ffffff" /><g
     id="SVGRepo_tracerCarrier-61"
     stroke-linecap="round"
     stroke-linejoin="round"
     transform="matrix(0.43623021,0,0,0.43623021,12.120044,8.9718796)"
     style="fill:#ffffff" /><g
     id="SVGRepo_iconCarrier"
     transform="matrix(0.43623021,0,0,0.43623021,-327.87996,8.9718796)"
     style="fill:#ffffff"><path
       fill="#000000"
       d="m 210.6,44.39 -7,-4.39 c -13.7,-8.4 -30.8,-13.28 -45.5,-8.7 -15.8,4.92 -28.4,17.09 -35,35.37 l -9.4,-4.84 C 97.5,53.49 89.02,53.36 81.99,56.52 76.38,59.03 70.53,65.07 63.9,73.89 l 82.4,63.71 c 12.9,4.2 31.8,4.1 50.7,-0.8 19,-4.9 37.9,-14.5 51.7,-27.4 L 279.8,32.5 C 252.4,10.85 227.4,23.39 210.6,44.39 Z m 53.1,76.51 c -17,17.2 -42.3,28.8 -62,34 -6.9,1.8 -13.8,3.1 -20.5,3.8 -3.7,6.1 -6.8,12.3 -9.2,18.5 4.8,24.4 13.8,44.4 27.3,60.8 l -14.4,12 c -8.3,-10 -15.7,-20.8 -21.3,-32.8 -0.9,23.2 4.3,47.2 12.8,72.2 l -17.7,6 c -15.6,-45.6 -20.9,-92.3 1,-136.3 -7.4,-0.6 -14.4,-2 -20.9,-4.3 l -0.3,-0.1 c -4.3,4.1 -8.4,8.4 -12.3,12.9 -31.57,36.6 -48.96,85.3 -39.86,123.2 4.87,20.3 13.6,39.5 26.16,55.9 18.4,-0.4 35.8,0 51.6,6 7.5,-0.8 15.2,-1.3 23.2,-1.3 28.5,0 54.3,5.3 73.8,14.5 7.6,3.6 14.5,7.9 20,12.8 0,-5.3 0.8,-11 2.4,-15.2 -8.9,-8.4 -14.5,-18.6 -14.5,-30.2 0,-16.1 10.7,-29.4 26.2,-39 0,-4.6 0.9,-9 2.5,-13.2 -10.1,-8.7 -16.6,-19.5 -16.6,-32.1 0,-7.9 2.6,-15.1 7,-21.6 -4.4,-6.4 -7,-13.6 -7,-21.5 0,-3.9 0.6,-7.5 1.7,-11 -9.7,-8.6 -15.8,-19.2 -15.8,-31.4 0,-12.1 6,-22.6 15.6,-31.1 -5.9,-4.6 -12.2,-8.5 -18.9,-11.5 z m 111.4,2.3 c -26,0 -49.5,5.5 -65.6,13.6 -16.2,8.1 -23.8,18.1 -23.8,26.7 0,8.7 7.6,18.7 23.8,26.8 16.1,8.1 39.6,13.6 65.6,13.6 11.3,0 22,-1.1 31.9,-2.9 v -17 c 13.9,-2.1 25.4,-5.9 32.8,-10.8 v 17.6 c 12.5,-3.6 24.5,-16.9 24.8,-27.3 0,-8.6 -7.6,-18.6 -23.8,-26.7 -16.2,-8.1 -39.6,-13.6 -65.7,-13.6 z m 96.5,67.7 c -3.3,3.5 -7.2,6.8 -11.6,9.8 l 0.2,29 c 12.6,-7.5 18.5,-16.2 18.5,-23.8 0,-4.8 -2.3,-10 -7.1,-15 z m -171.8,15.4 c 0.3,8.6 7.9,18.3 23.8,26.3 16.2,8.2 39.6,13.6 65.7,13.6 16.3,0 31.6,-2.2 44.7,-5.8 l 0.7,-27.2 c -17.2,6 -37.6,9.3 -59.6,9.3 -28.5,0 -54.4,-5.7 -74,-15.5 -0.5,-0.2 -0.9,-0.5 -1.3,-0.7 z m 2,34.8 c -1.4,2.7 -2,5.4 -2,7.9 0,8.7 7.6,18.7 23.8,26.8 16.2,8.1 39.6,13.5 65.7,13.5 13.2,0 25.7,-1.3 37,-3.8 v -24 c -11.6,2.2 -24,3.3 -37,3.3 -28.6,0 -54.5,-5.6 -74.1,-15.5 -4.9,-2.4 -9.4,-5.2 -13.4,-8.2 z m 174.9,0 c -6.1,4.3 -11.4,7.5 -17.6,10.2 v 22.3 c 13.3,-7.7 19.6,-16.7 19.6,-24.6 0,-2.5 -0.6,-5.2 -2,-7.9 z m 7.5,36.8 c -2,2 -4.2,3.9 -6.6,5.8 v 32.4 c 10.3,-7 15.3,-14.7 15.3,-21.7 0,-5.3 -2.9,-11 -8.7,-16.5 z m -170.1,14 c -0.1,0.9 -0.2,1.7 -0.2,2.5 0,8.7 7.6,18.6 23.8,26.7 16.2,8.2 39.7,13.6 65.7,13.6 14.9,0 29.1,-1.8 41.4,-4.8 V 300 c -16.3,5.2 -35.2,8 -55.5,8 -28.6,0 -54.5,-5.7 -74.1,-15.5 -0.4,-0.2 -0.7,-0.4 -1.1,-0.6 z m -13.6,21.4 c -8.7,6.5 -12.8,13.6 -12.8,20 0,8.7 7.6,18.6 23.8,26.8 16.2,8.1 39.6,13.5 65.7,13.5 9.5,0 18.7,-0.7 27.3,-2 v -18.2 h -1.1 c -28.6,0 -54.5,-5.7 -74.1,-15.6 -12.5,-6.2 -22.9,-14.5 -28.8,-24.5 z M 463,343.9 c -7.9,2.8 -16.5,5.1 -25.7,6.6 v 12.1 c 1.9,-0.8 3.8,-1.6 5.6,-2.5 9.8,-5 16.4,-10.6 20.1,-16.2 z m 9.2,18.2 c -3.8,3.8 -8.2,7.2 -13.1,10.3 V 401 c 13.3,-7.6 19.6,-16.6 19.6,-24.5 0,-4.6 -2.1,-9.6 -6.5,-14.4 z m -348.7,2.8 c -10.2,0.1 -21.2,1.4 -32.6,4.1 -22.81,5.3 -42.42,15 -55.22,25.7 -12.8,10.6 -17.8,21.4 -16.3,29.1 1.5,7.7 9.4,14.8 24.8,18.9 15.35,4 36.82,4.2 59.62,-1.1 9.2,-2.2 17.8,-5 25.7,-8.3 v -20.7 c 14.6,-6.5 25.5,-14.3 30.4,-21.9 v 24.4 c 12.1,-10.4 16.8,-20.8 15.4,-28.4 -1.4,-7.7 -9.4,-14.8 -24.8,-18.8 -7.7,-2 -16.9,-3.1 -27,-3 z m 64.6,5.2 c 2.7,3.9 4.6,8.3 5.6,13.2 1.1,6 0.6,11.8 -1.2,17.5 9.9,2.6 18.9,6.1 26.7,10.5 4.4,2.4 8.5,5.3 12.1,8.3 9,-2.1 16.6,-5.1 22,-8.7 v 20.6 c 16.1,-7.6 23.5,-16.9 23.5,-24.3 0,-7.5 -7.4,-16.8 -23.6,-24.4 -16.1,-7.5 -39.3,-12.6 -65.1,-12.7 z m 111.8,5 c -0.1,0.4 -0.1,0.9 -0.1,1.4 0,8.7 7.6,18.6 23.8,26.8 16.2,8.1 39.6,13.5 65.7,13.5 13.2,0 25.7,-1.4 37,-3.8 v -26.9 c -14.8,4 -31.5,6.2 -49.1,6.2 -28.6,0 -54.5,-5.7 -74.1,-15.5 -1.1,-0.6 -2.2,-1.2 -3.2,-1.7 z m 2.8,37.3 c -2,3.3 -2.9,6.5 -2.9,9.6 0,8.7 7.6,18.6 23.8,26.8 16.2,8.1 39.6,13.5 65.7,13.5 13.2,0 25.7,-1.4 37,-3.8 v -26.4 c -11.6,2.2 -24,3.4 -37,3.4 -28.6,0 -54.5,-5.7 -74.1,-15.6 -4.5,-2.2 -8.7,-4.7 -12.5,-7.5 z m 173.1,0 c -5.8,3.9 -10.9,7 -16.7,9.5 v 24.6 c 13.3,-7.6 19.6,-16.6 19.6,-24.5 0,-3.1 -0.9,-6.3 -2.9,-9.6 z m -292.6,5.4 c -3.5,4.4 -7.6,8.6 -12.2,12.4 -15.6,13.1 -37.6,23.7 -63,29.6 -9.06,2.1 -18.06,3.4 -26.7,4.1 3.2,5.3 8.83,10.5 17.07,15.1 13.63,7.7 33.63,12.9 55.83,12.9 10.1,0 19.7,-1.1 28.5,-3 v -20.8 c 13.8,-2.1 25.4,-5.9 32.8,-10.8 v 18.4 c 10,-7 14.8,-14.9 14.8,-22.4 0,-8.7 -6.5,-18 -20.2,-25.7 -7.4,-4.1 -16.6,-7.5 -26.9,-9.8 z"
       id="path5192"
       style="fill:#ffffff" /></g><g
     id="SVGRepo_bgCarrier-29"
     stroke-width="0"
     transform="matrix(3.1525463,0,0,3.1525463,140.76978,131.90573)"
     style="fill:#ffffff" /><g
     id="SVGRepo_tracerCarrier-3"
     stroke-linecap="round"
     stroke-linejoin="round"
     transform="matrix(3.1525463,0,0,3.1525463,140.76978,131.90573)"
     style="fill:#ffffff" /><g
     id="SVGRepo_bgCarrier-94"
     stroke-width="0"
     transform="matrix(5.3576456,0,0,5.3576456,73.164113,207.84615)" /><g
     id="SVGRepo_tracerCarrier-78"
     stroke-linecap="round"
     stroke-linejoin="round"
     transform="matrix(5.3576456,0,0,5.3576456,73.164113,207.84615)" /><g
     id="SVGRepo_bgCarrier-50"
     stroke-width="0"
     transform="matrix(2.2622686,0.36504079,-0.36504079,2.2622686,151.58209,102.28105)" /><g
     id="SVGRepo_tracerCarrier-36"
     stroke-linecap="round"
     stroke-linejoin="round"
     transform="matrix(2.2622686,0.36504079,-0.36504079,2.2622686,151.58209,102.28105)" /><g
     id="SVGRepo_bgCarrier-63"
     stroke-width="0"
     transform="matrix(8.4908784,0,0,8.4908784,17.852899,23.757009)" /><g
     id="SVGRepo_tracerCarrier-20"
     stroke-linecap="round"
     stroke-linejoin="round"
     transform="matrix(8.4908784,0,0,8.4908784,17.852899,23.757009)" /><g
     id="SVGRepo_iconCarrier-6"
     transform="matrix(8.4908784,0,0,8.4908784,19.513428,19.513428)"><path
       d="M 16.166667,6 C 16.074619,6 16,6.0746192 16,6.1666667 V 7.8333333 C 16,7.9253808 16.074619,8 16.166667,8 h 1.666666 C 17.925381,8 18,7.9253808 18,7.8333333 V 6.1666667 C 18,6.0746192 17.925381,6 17.833333,6 Z M 16,18 v -0.5 c 0,-0.276142 0.223858,-0.5 0.5,-0.5 0.276142,0 0.5,0.223858 0.5,0.5 V 18 h 1 v -0.5 c 0,-0.276142 0.223858,-0.5 0.5,-0.5 0.276142,0 0.5,0.223858 0.5,0.5 v 1 c 0,0.276142 -0.223858,0.5 -0.5,0.5 h -4 C 14.223858,19 14,18.776142 14,18.5 v -1 c 0,-0.276142 0.223858,-0.5 0.5,-0.5 0.276142,0 0.5,0.223858 0.5,0.5 V 18 Z m -3,-7 h 0.5 c 0.276142,0 0.5,0.223858 0.5,0.5 0,0.276142 -0.223858,0.5 -0.5,0.5 h -2 C 11.223858,12 11,11.776142 11,11.5 11,11.223858 11.223858,11 11.5,11 H 12 V 10 H 10.5 C 10.223858,10 10,9.7761424 10,9.5 10,9.2238576 10.223858,9 10.5,9 h 3 C 13.776142,9 14,9.2238576 14,9.5 14,9.7761424 13.776142,10 13.5,10 H 13 Z m 5,1 H 17.5 C 17.223858,12 17,11.776142 17,11.5 17,11.223858 17.223858,11 17.5,11 H 18 v -0.5 c 0,-0.276142 0.223858,-0.5 0.5,-0.5 0.276142,0 0.5,0.223858 0.5,0.5 v 2 C 19,12.776142 18.776142,13 18.5,13 18.223858,13 18,12.776142 18,12.5 Z m -5,2 H 12.5 C 12.223858,14 12,13.776142 12,13.5 12,13.223858 12.223858,13 12.5,13 h 1 c 0.276142,0 0.5,0.223858 0.5,0.5 v 2 c 0,0.276142 -0.223858,0.5 -0.5,0.5 h -3 C 10.223858,16 10,15.776142 10,15.5 10,15.223858 10.223858,15 10.5,15 H 13 Z m 3.166667,-9 h 1.666666 C 18.477665,5 19,5.5223345 19,6.1666667 V 7.8333333 C 19,8.4776655 18.477665,9 17.833333,9 H 16.166667 C 15.522334,9 15,8.4776655 15,7.8333333 V 6.1666667 C 15,5.5223345 15.522334,5 16.166667,5 Z M 6.1666667,5 H 7.8333333 C 8.4776655,5 9,5.5223345 9,6.1666667 V 7.8333333 C 9,8.4776655 8.4776655,9 7.8333333,9 H 6.1666667 C 5.5223345,9 5,8.4776655 5,7.8333333 V 6.1666667 C 5,5.5223345 5.5223345,5 6.1666667,5 Z m 0,1 C 6.0746192,6 6,6.0746192 6,6.1666667 V 7.8333333 C 6,7.9253808 6.0746192,8 6.1666667,8 H 7.8333333 C 7.9253808,8 8,7.9253808 8,7.8333333 V 6.1666667 C 8,6.0746192 7.9253808,6 7.8333333,6 Z m 0,9 H 7.8333333 C 8.4776655,15 9,15.522334 9,16.166667 v 1.666666 C 9,18.477665 8.4776655,19 7.8333333,19 H 6.1666667 C 5.5223345,19 5,18.477665 5,17.833333 V 16.166667 C 5,15.522334 5.5223345,15 6.1666667,15 Z m 0,1 C 6.0746192,16 6,16.074619 6,16.166667 v 1.666666 C 6,17.925381 6.0746192,18 6.1666667,18 H 7.8333333 C 7.9253808,18 8,17.925381 8,17.833333 V 16.166667 C 8,16.074619 7.9253808,16 7.8333333,16 Z M 13,6 H 10.5 C 10.223858,6 10,5.7761424 10,5.5 10,5.2238576 10.223858,5 10.5,5 h 3 C 13.776142,5 14,5.2238576 14,5.5 v 2 C 14,7.7761424 13.776142,8 13.5,8 13.223858,8 13,7.7761424 13,7.5 Z M 10.5,8 C 10.223858,8 10,7.7761424 10,7.5 10,7.2238576 10.223858,7 10.5,7 h 1 C 11.776142,7 12,7.2238576 12,7.5 12,7.7761424 11.776142,8 11.5,8 Z m -5,6 C 5.2238576,14 5,13.776142 5,13.5 5,13.223858 5.2238576,13 5.5,13 h 2 C 7.7761424,13 8,13.223858 8,13.5 8,13.776142 7.7761424,14 7.5,14 Z m 4,0 C 9.2238576,14 9,13.776142 9,13.5 9,13.223858 9.2238576,13 9.5,13 h 1 c 0.276142,0 0.5,0.223858 0.5,0.5 0,0.276142 -0.223858,0.5 -0.5,0.5 z m 1.5,4 v 0.5 C 11,18.776142 10.776142,19 10.5,19 10.223858,19 10,18.776142 10,18.5 v -1 C 10,17.223858 10.223858,17 10.5,17 h 2 c 0.276142,0 0.5,0.223858 0.5,0.5 0,0.276142 -0.223858,0.5 -0.5,0.5 z M 9,11 H 9.5 C 9.7761424,11 10,11.223858 10,11.5 10,11.776142 9.7761424,12 9.5,12 h -1 C 8.2238576,12 8,11.776142 8,11.5 V 11 H 7.5 C 7.2238576,11 7,10.776142 7,10.5 7,10.223858 7.2238576,10 7.5,10 h 1 C 8.7761424,10 9,10.223858 9,10.5 Z M 5,10.5 C 5,10.223858 5.2238576,10 5.5,10 5.7761424,10 6,10.223858 6,10.5 v 1 C 6,11.776142 5.7761424,12 5.5,12 5.2238576,12 5,11.776142 5,11.5 Z m 10,0 c 0,-0.276142 0.223858,-0.5 0.5,-0.5 0.276142,0 0.5,0.223858 0.5,0.5 v 2 C 16,12.776142 15.776142,13 15.5,13 15.223858,13 15,12.776142 15,12.5 Z M 17,15 V 14.5 C 17,14.223858 17.223858,14 17.5,14 h 1 c 0.276142,0 0.5,0.223858 0.5,0.5 0,0.276142 -0.223858,0.5 -0.5,0.5 H 18 v 0.5 c 0,0.276142 -0.223858,0.5 -0.5,0.5 h -2 C 15.223858,16 15,15.776142 15,15.5 v -1 c 0,-0.276142 0.223858,-0.5 0.5,-0.5 0.276142,0 0.5,0.223858 0.5,0.5 V 15 Z M 3,6.5 C 3,6.7761424 2.7761424,7 2.5,7 2.2238576,7 2,6.7761424 2,6.5 v -2 C 2,3.1192881 3.1192881,2 4.5,2 h 2 C 6.7761424,2 7,2.2238576 7,2.5 7,2.7761424 6.7761424,3 6.5,3 h -2 C 3.6715729,3 3,3.6715729 3,4.5 Z M 17.5,3 C 17.223858,3 17,2.7761424 17,2.5 17,2.2238576 17.223858,2 17.5,2 h 2 C 20.880712,2 22,3.1192881 22,4.5 v 2 C 22,6.7761424 21.776142,7 21.5,7 21.223858,7 21,6.7761424 21,6.5 v -2 C 21,3.6715729 20.328427,3 19.5,3 Z M 6.5,21 C 6.7761424,21 7,21.223858 7,21.5 7,21.776142 6.7761424,22 6.5,22 h -2 C 3.1192881,22 2,20.880712 2,19.5 v -2 C 2,17.223858 2.2238576,17 2.5,17 2.7761424,17 3,17.223858 3,17.5 v 2 C 3,20.328427 3.6715729,21 4.5,21 Z M 21,17.5 c 0,-0.276142 0.223858,-0.5 0.5,-0.5 0.276142,0 0.5,0.223858 0.5,0.5 v 2 c 0,1.380712 -1.119288,2.5 -2.5,2.5 h -2 C 17.223858,22 17,21.776142 17,21.5 17,21.223858 17.223858,21 17.5,21 h 2 c 0.828427,0 1.5,-0.671573 1.5,-1.5 z"
       id="path7849" /></g></svg>
